<?xml version="1.0" encoding="UTF-8"?>
<svg id="Layer_1" data-name="Layer 1" xmlns="http://www.w3.org/2000/svg" viewBox="0 0 1097.7 197.59">
  <defs>
    <style>
      .cls-1 {
        fill: #69bafe;
      }

      .cls-2 {
        fill: #222;
      }

      .cls-3 {
        fill: #fefefe;
      }
    </style>
  </defs>
  <path class="cls-3" d="M0,2.17V0h1097.7v197.59h-247.58l27.14-6.76c19-8.05,26.15-24.53,34.59-41.71,16.41-33.4,28.43-69.48,43.43-103.52h-30.67l-29.6,71.67-31.75-71.67h-30.67l33.94,80.36c5.16,4.49,16.22,1.23,23.02,2.16-5.5,14.85-10.42,31.52-26.31,37.95-3.25,1.31-14.59,2.92-15.09,3.5-1.61,1.86.7,23.1-.22,28.02H0V28.23c15.31,2.62,59.93-4.53,70.98,2.4,10.13,6.35,6.74,38.86-1.97,38.86H30.67v26.07c5.7,1.19,24.89-1.82,28.18.28,2.61,1.67,18.87,50.37,25.47,56.19,5.47,4.82,21.86.93,29.6,2.13,3.42-3.29-28.89-57.64-25.97-62.62.41-.7,9.11-4.76,12.5-10.44,7-11.74,7.03-50.99.77-63.07C87.35-8.73,25.74,5.93,0,2.17ZM815.06,2.17h-26.29v151.99h26.29V2.17ZM992.53,2.17h-37.25l104.07,151.99h33.96c-3.92-18.36-49.68-65.41-50.43-79.43-.13-2.46.54-4.55,2.04-6.49l46.2-66.06h-37.25c-7.7,12.97-17.04,30.7-26.64,41.99-1.75,2.06-1.54,3.65-5.1,3.63-2.74-.01-25.72-40-29.6-45.62ZM593.76,73.82c1.44,1.41,0,34.37,0,40.17,0,8.65,11.54,24.06,18.63,29.31,6.3,4.67,30.1,16.04,31.77,5.45.34-2.14.86-22-.08-22.65-2.82-1.96-21.83-3.67-21.83-14.28v-38c0-1.09,19.36.82,21.92-.02-2.47-6.61,2.77-20.84-.97-26.17-3.14-4.48-19.63-.69-20.96-2.02-1.01-1,.76-23.89.02-28.25l-27.23-.03c-3.32.49.17,26.89-1.25,28.28-.86.84-12.31-.86-13.17-.02-1.01.99-1.02,27.26,0,28.25.84.82,12.33-.82,13.16-.01ZM241.01,106.39c9.24-75.85-106.05-85.42-111.49-11.65-4.92,66.69,85.78,84.75,109.3,24.68h-31.77c-.81,0-9.48,6.73-14.1,7.76-14.45,3.23-32.76-4.75-33.01-20.79h81.07ZM436.01,154.16v-64.05c0-3.35-5.49-19.08-7.56-22.91-12.47-23.17-42.25-27.59-65.38-18.98-4.63,1.72-10.64,7.48-13.94,7.8-3.83.37-11.79-6.52-17.05-8.39-26.33-9.35-57.29-.43-67.42,26.82-.76,2.04-3.92,12.53-3.92,13.49v66.22h28.48v-66.22c0-1.4,5.9-10.04,7.96-11.65,14.14-11.06,38.05-.87,38.05,15.99v61.88h26.29v-64.05c0-7.53,12.81-18.04,20.85-18.59,9.03-.62,25.16,6.91,25.16,16.42v66.22h28.48ZM505.67,44.02c-71.11,6.64-63.5,113.29,5.83,112.37,77.02-1.03,72.81-119.71-5.83-112.37ZM766.85,106.39c7.97-84.6-121.32-83.62-109.36,5.24,7.31,54.33,91.3,59.81,107.17,7.79h-31.77c-.8,0-8.28,7.12-13.66,8.2-14.93,3.01-31.35-5.67-33.45-21.23h81.07ZM990.34,154.16c2.42-9.84,25.22-32.87,25.93-40.52.23-2.51-15.02-25.41-18.23-24.61-3.86.95-38.29,57.93-44.94,65.13h37.25Z"/>
  <path class="cls-2" d="M847.92,197.59c.92-4.92-1.39-26.16.22-28.02.5-.58,11.85-2.19,15.09-3.5,15.9-6.43,20.81-23.11,26.31-37.95-6.8-.93-17.86,2.34-23.02-2.16l-33.94-80.36h30.67l31.75,71.67,29.6-71.67h30.67c-15.01,34.04-27.03,70.12-43.43,103.52-8.44,17.19-15.6,33.67-34.59,41.71l-27.14,6.76h-2.19Z"/>
  <path class="cls-2" d="M0,2.17c25.74,3.76,87.35-10.9,101.22,15.85,6.26,12.07,6.23,51.33-.77,63.07-3.39,5.68-12.09,9.74-12.5,10.44-2.91,4.98,29.39,59.33,25.97,62.62-7.74-1.2-24.13,2.69-29.6-2.13-6.59-5.82-22.85-54.52-25.47-56.19-3.3-2.1-22.49.91-28.2-.28v-26.07h38.35c8.71,0,12.1-32.51,1.97-38.86-11.06-6.93-55.67.22-70.98-2.4V2.17Z"/>
  <path class="cls-2" d="M436.01,154.16h-28.48v-66.22c0-9.5-16.13-17.04-25.16-16.42-8.04.55-20.85,11.06-20.85,18.59v64.05h-26.29v-61.88c0-16.86-23.91-27.05-38.05-15.99-2.06,1.61-7.96,10.25-7.96,11.65v66.22h-28.48v-66.22c0-.95,3.16-11.45,3.92-13.49,10.13-27.25,41.09-36.17,67.42-26.82,5.26,1.87,13.22,8.76,17.05,8.39,3.3-.32,9.31-6.08,13.94-7.8,23.13-8.61,52.91-4.19,65.38,18.98,2.06,3.83,7.56,19.55,7.56,22.91v64.05Z"/>
  <path class="cls-2" d="M241.01,106.39h-81.07c.24,16.04,18.56,24.02,33.01,20.79,4.62-1.03,13.29-7.76,14.1-7.76h31.77c-23.51,60.07-114.22,42.02-109.3-24.68,5.44-73.77,120.73-64.2,111.49,11.65ZM210.34,89.02c-5.82-24.21-42.43-22.31-50.39,0h50.39Z"/>
  <path class="cls-2" d="M766.85,106.39h-81.07c2.09,15.56,18.51,24.24,33.45,21.23,5.38-1.09,12.86-8.2,13.66-8.2h31.77c-15.87,52.03-99.87,46.55-107.17-7.79-11.95-88.86,117.34-89.84,109.36-5.24ZM738.37,89.02c-7.7-22.61-44.2-23.68-50.39,0h50.39Z"/>
  <path class="cls-1" d="M992.53,2.17c3.88,5.62,26.86,45.61,29.6,45.62,3.57.02,3.36-1.57,5.1-3.63,9.6-11.29,18.94-29.02,26.64-41.99h37.25l-46.2,66.06c-1.5,1.94-2.17,4.03-2.04,6.49.76,14.02,46.52,61.08,50.43,79.43h-33.96L955.28,2.17h37.25Z"/>
  <path class="cls-2" d="M505.67,44.02c78.64-7.34,82.84,111.34,5.83,112.37-69.33.92-76.94-105.73-5.83-112.37ZM505.56,72.15c-29.33,5-29.36,50.38,0,55.45,44.41,7.67,45.1-63.14,0-55.45Z"/>
  <path class="cls-2" d="M593.76,73.82c-.83-.81-12.32.83-13.16.01-1.02-.99-1.01-27.26,0-28.25.86-.84,12.31.86,13.17.02,1.42-1.39-2.07-27.78,1.25-28.28l27.23.03c.73,4.36-1.03,27.25-.02,28.25,1.34,1.33,17.82-2.46,20.96,2.02,3.74,5.33-1.51,19.56.97,26.17-2.56.84-21.92-1.06-21.92.02v38c0,10.61,19.01,12.31,21.83,14.28.94.65.42,20.51.08,22.65-1.67,10.59-25.47-.78-31.77-5.45-7.08-5.25-18.63-20.66-18.63-29.31,0-5.8,1.44-38.76,0-40.17Z"/>
  <rect class="cls-2" x="788.76" y="2.17" width="26.29" height="151.99"/>
  <path class="cls-1" d="M990.34,154.16h-37.25c6.65-7.21,41.08-64.18,44.94-65.13,3.22-.79,18.46,22.11,18.23,24.61-.7,7.65-23.51,30.68-25.93,40.52Z"/>
  <path class="cls-3" d="M210.34,89.02h-50.39c7.97-22.31,44.57-24.21,50.39,0Z"/>
  <path class="cls-3" d="M738.37,89.02h-50.39c6.19-23.68,42.69-22.61,50.39,0Z"/>
  <path class="cls-3" d="M505.56,72.15c45.1-7.69,44.4,63.12,0,55.45-29.35-5.07-29.32-50.45,0-55.45Z"/>
</svg>