<?xml version="1.0" encoding="UTF-8"?>
<svg id="Layer_1" data-name="Layer 1" xmlns="http://www.w3.org/2000/svg" viewBox="0 0 125.21 150">
  <defs>
    <style>
      .cls-1 {
        fill: #fff;
      }
    </style>
  </defs>
  <path class="cls-1" d="M65.08.11c26.85,2.24,41.65,33.51,26.84,55.95-14.3,21.66-45.75,21.59-60.36.23C16.32,33.99,31.48,2.29,58.35.11c1.85-.15,4.89-.15,6.74,0Z"/>
  <path class="cls-1" d="M31.93,72.49c4.74-.07,8.71,3.89,12.67,6.19,11.24,6.52,23.18,7.08,34.74.81,3.42-1.86,9.43-7.04,13.15-7.08,24.24-.3,31.83,26.51,32.66,46.1.75,17.61-5.48,29.5-24.17,31.49l-77.05-.02C6.01,147.95-.57,136.48.04,119.39c.69-19.56,7.8-46.55,31.89-46.89Z"/>
</svg>