<?xml version="1.0" encoding="UTF-8"?>
<svg id="Layer_1" data-name="Layer 1" xmlns="http://www.w3.org/2000/svg" viewBox="0 0 150 150.1">
  <defs>
    <style>
      .cls-1 {
        fill: #1c2127;
      }
    </style>
  </defs>
  <path class="cls-1" d="M76.51,150.1h-2.93c-2.71-.94-5.19-2.87-5.73-5.85-.48-2.64-.44-11.15-.13-13.94.95-8.74,13.71-8.74,14.66,0,.3,2.79.34,11.3-.13,13.94-.54,2.98-3.02,4.91-5.73,5.85Z"/>
  <path class="cls-1" d="M0,76.52v-2.93c.94-2.71,2.87-5.19,5.85-5.73,2.64-.48,11.15-.44,13.94-.13,8.72.94,8.72,13.72,0,14.66-2.79.3-11.3.34-13.94-.13-2.98-.54-4.91-3.02-5.85-5.73Z"/>
  <path class="cls-1" d="M71.17,37.62c33.33-3.04,54.17,35.25,32.88,61.32-18.75,22.96-56.08,15.65-64.86-12.51-7-22.45,8.45-46.66,31.97-48.8Z"/>
  <path class="cls-1" d="M34.22,107.37c5.96-.94,10.53,5.25,7.76,10.69-.85,1.67-9.42,10.22-11.11,11.17-6.3,3.54-13.29-2.8-10.31-9.43.81-1.8,9.69-10.77,11.48-11.68.48-.24,1.67-.67,2.18-.75Z"/>
  <path class="cls-1" d="M25.73,20.03c2.5-.36,4.2.06,6.2,1.56,1.66,1.25,9.08,8.68,9.95,10.28,3.54,6.52-3.52,13.55-10.02,10.02-1.63-.89-10.05-9.35-10.98-11-2.38-4.23-.12-10.14,4.86-10.86Z"/>
  <path class="cls-1" d="M121.28,20.02c7.42-1.27,11.65,6.56,6.83,12.4-1.48,1.79-8.13,8.53-9.87,9.47-6.41,3.48-13.44-3.33-10.13-9.83.87-1.72,9.76-10.56,11.48-11.38.51-.25,1.14-.56,1.69-.65Z"/>
  <path class="cls-1" d="M113.36,107.37c1.77-.28,3.5.09,5.04.97,1.64.94,9.88,9.23,10.81,10.88,3.65,6.51-3.2,13.55-9.82,10.11-1.66-.86-10.29-9.44-11.19-11.09-2.38-4.39.2-10.1,5.15-10.88Z"/>
  <path class="cls-1" d="M129.78,67.8c2.72-.42,10.88-.38,13.71-.07,8.63.94,8.64,13.54.27,14.63-2.84.37-10.57.34-13.46.03-8.59-.93-8.71-13.32-.51-14.59Z"/>
  <path class="cls-1" d="M73.79.09c4.16-.65,8.13,2.35,8.58,6.52.3,2.78.34,11.31-.13,13.94-1.45,7.99-13.61,7.69-14.53-.74-.3-2.79-.34-11.3.13-13.94.5-2.76,3.17-5.34,5.95-5.78Z"/>
</svg>