<?xml version="1.0" encoding="UTF-8"?>
<svg id="Layer_1" data-name="Layer 1" xmlns="http://www.w3.org/2000/svg" viewBox="0 0 149.47 149.48">
  <defs>
    <style>
      .cls-1 {
        fill: #fff;
      }
    </style>
  </defs>
  <path class="cls-1" d="M.07,70.06C3.79,6.5,82.15-23.55,127.52,21.69c45.58,45.45,15.65,124.07-48.06,127.79h-9.34c-1.68-.45-3.6-.39-5.36-.63C31.81,144.49,5.01,117.77.69,84.77c-.23-1.76-.18-3.68-.63-5.36.13-3.09-.18-6.26,0-9.34h0ZM74.69,26.67c-2.37.05-4.56,1.84-5.14,4.14l-.03,44.38c0,1.94,1.2,3.02,2.5,4.21,8.01,7.38,18.1,13.7,26.31,20.98,5.53,3.61,11.4-3.17,6.92-8.09l-25.16-20.39-.08-41.09c-.58-2.37-2.9-4.19-5.33-4.14h.01Z"/>
</svg>